<svg width="24" height="24" viewBox="0 0 24 24" fill="none" xmlns="http://www.w3.org/2000/svg">
<g opacity="0.4">
<path fill-rule="evenodd" clip-rule="evenodd" d="M17.0137 22H8.6659C5.59954 22 3.24714 20.8925 3.91533 16.4348L4.69336 10.3936C5.10526 8.16934 6.52403 7.31808 7.76888 7.31808H17.9474C19.2105 7.31808 20.5469 8.23342 21.0229 10.3936L21.8009 16.4348C22.3684 20.389 20.0801 22 17.0137 22Z" stroke="#11142D" stroke-width="1.5" stroke-linecap="round" stroke-linejoin="round"/>
<path d="M17.151 7.0984C17.151 4.71233 15.2167 2.77804 12.8307 2.77804V2.77804C11.6817 2.77317 10.5781 3.2262 9.76386 4.03695C8.94967 4.84771 8.49198 5.94939 8.49199 7.0984V7.0984" stroke="#11142D" stroke-width="1.5" stroke-linecap="round" stroke-linejoin="round"/>
<path d="M15.7963 11.6018H15.7506" stroke="#11142D" stroke-width="1.5" stroke-linecap="round" stroke-linejoin="round"/>
<path d="M9.96568 11.6018H9.91991" stroke="#11142D" stroke-width="1.5" stroke-linecap="round" stroke-linejoin="round"/>
</g>
</svg>
